<?xml version="1.0" encoding="utf-8"?>
<!-- Generator: Adobe Illustrator 24.1.2, SVG Export Plug-In . SVG Version: 6.00 Build 0)  -->
<svg version="1.1" id="Capa_1" xmlns="http://www.w3.org/2000/svg" xmlns:xlink="http://www.w3.org/1999/xlink" x="0px" y="0px"
	 viewBox="0 0 841.89 1190.55" style="enable-background:new 0 0 841.89 1190.55;" xml:space="preserve">
<style type="text/css">
	.st0{fill:#CF1263;}
	.st1{fill:#0C0B0B;}
	.st2{fill:#680E33;}
	.st3{fill:#0C0C0C;}
	.st4{fill:#5C082C;}
	.st5{fill:#3C3B3C;}
	.st6{fill:#5C082B;}
	.st7{fill:#A50C4D;}
	.st8{fill:#750937;}
	.st9{fill:#750936;}
	.st10{fill:#770A38;}
	.st11{fill:#770A37;}
	.st12{fill:#760A37;}
	.st13{fill:#CC0F5F;}
	.st14{fill:#9C0D49;}
	.st15{fill:#F5F5F5;}
	.st16{fill:#0A0A0A;}
	.st17{fill:#272727;}
	.st18{fill:#141414;}
</style>
<path class="st0" d="M405.8,811.29c-15.52-3.23-30.99-6.7-46.56-9.62c-21.13-3.96-40.53-12.13-59.38-22.22
	c-8.06-4.31-15.16-8.84-18.81-17.57c-0.66-1.57-1.83-3.02-3.05-4.24c-8.26-8.28-10.22-18.89-10.74-29.85
	c-0.41-8.84-0.9-17.82,0.16-26.55c1.22-9.96-1.75-19.29-2.41-28.94c-1.02-14.92-2.91-29.79-3.8-44.72
	c-0.74-12.46-0.78-24.96-0.75-37.45c0.06-27.04,2.56-53.81,9.01-80.16c2.37-9.68,3.26-19.75,6.07-29.27
	c12.03-40.86,36.45-71.91,74.54-91.65c14.69-7.61,30.23-12.92,46.59-15.65c8.47-1.42,17.05-4.05,25.45-3.62
	c11.85,0.6,23.78,2.72,35.31,5.63c19.02,4.79,36.42,13.46,52.13,25.34c19.82,14.99,34.95,33.82,44.82,56.58
	c7.03,16.21,13.73,32.62,19.47,49.33c7.84,22.82,12.92,46.34,14.7,70.51c1.08,14.65-0.4,29.12-1.85,43.65
	c-2.1,21.09-3.23,42.28-5.47,63.35c-1.23,11.6-0.18,22.86,1.77,34.2c1.76,10.23,2.47,20.52,2.08,30.94
	c-0.31,8.25-4.54,14.32-9.45,20.24c-1.2,1.44-2.61,2.72-3.66,4.26c-2.71,3.94-6.2,6.52-10.83,8.08
	c-19.86,6.68-39.32,14.84-59.54,20.1c-19.13,4.98-39.02,7.03-58.59,10.35c-0.85,0.14-1.74,0.06-2.6,0.09
	c0.01-3.61,0.12-7.22-0.01-10.83c-0.08-2.15-0.53-4.28-0.81-6.42c0.11-4.25,0.22-8.51,0.33-12.76c2.69-0.47,5.39-0.94,8.08-1.42
	c1.51-0.29,3.01-0.58,4.52-0.87c1.23-0.08,2.47-0.15,3.7-0.23c1.27-0.42,2.54-0.83,3.8-1.25c1.23-0.09,2.46-0.18,3.69-0.28
	c1.27-0.41,2.54-0.82,3.81-1.23c1.78-1.05,3.97-1.74,5.26-3.22c6.21-7.12,13.35-12.78,22.45-15.71c0.56-0.41,1.13-0.81,1.69-1.22
	c4.38-2.02,8.65-4.34,13.16-6c9.02-3.31,15.79-9.37,20.12-17.58c4.94-9.34,8.8-19.25,13.13-28.91c0.68-1.3,1.37-2.59,2.05-3.89
	c0.09-0.67,0.19-1.33,0.28-2c0.38-0.59,0.77-1.17,1.15-1.76c0.11-0.92,0.22-1.84,0.33-2.76c0.43-0.82,0.85-1.65,1.28-2.47
	c0.07-0.68,0.14-1.36,0.21-2.04c0.4-0.58,0.79-1.16,1.19-1.74c0.11-0.92,0.21-1.84,0.32-2.76c0.38-0.58,0.76-1.17,1.14-1.75
	c0.06-0.49,0.11-0.98,0.17-1.47c0.2-0.51,0.39-1.02,0.59-1.53c0.66-2.88,1.31-5.76,1.97-8.64c0.41-0.85,0.82-1.71,1.24-2.56
	c0.3-1.43,0.6-2.87,0.9-4.3c0.36-0.58,0.72-1.17,1.08-1.75c0.08-0.74,0.15-1.47,0.23-2.21c0.25-0.75,0.5-1.5,0.75-2.25
	c0.26-1.25,0.53-2.49,0.79-3.74c0.4-1.02,0.8-2.04,1.2-3.06c0.1-0.98,0.2-1.96,0.31-2.94c0.39-1.02,0.77-2.04,1.16-3.06
	c0.08-0.74,0.16-1.48,0.24-2.22c0.24-0.75,0.49-1.5,0.73-2.25c0.27-1.49,0.55-2.99,0.82-4.48c0.25-0.75,0.5-1.5,0.76-2.25
	c0.33-2.15,0.67-4.3,1-6.45c0.21-0.6,0.43-1.21,0.64-1.81c0.02-0.67,0.04-1.33,0.05-2c0.41-0.84,0.81-1.67,1.22-2.51
	c0.76-4,1.53-8,2.29-12c0.22-0.75,0.44-1.51,0.66-2.26c0.07-0.73,0.13-1.47,0.2-2.2c0.42-1.77,0.84-3.53,1.26-5.3
	c0.07-0.74,0.15-1.47,0.22-2.21c0.14-0.52,0.27-1.04,0.41-1.56c0.08-0.74,0.16-1.48,0.24-2.22c0.22-1.75,0.45-3.5,0.67-5.25
	c0-5.23,0-10.45,0-15.68c-0.39-2.33-0.78-4.67-1.17-7c-0.01-0.67-0.02-1.34-0.03-2c-0.03-0.51-0.07-1.02-0.1-1.53
	c-0.08-1.23-0.17-2.47-0.25-3.7c-0.43-2.26-0.86-4.52-1.29-6.79c-0.05-0.49-0.09-0.98-0.14-1.47c-0.24-0.75-0.48-1.5-0.72-2.25
	c-0.07-0.49-0.14-0.99-0.2-1.48c-0.14-0.52-0.28-1.04-0.41-1.56c-0.06-0.49-0.12-0.97-0.18-1.46c-0.2-0.51-0.4-1.02-0.61-1.53
	c-0.29-1.49-0.59-2.98-0.88-4.47c-0.22-0.51-0.43-1.01-0.65-1.52c-0.26-1.25-0.53-2.5-0.79-3.74c-0.41-0.84-0.82-1.68-1.23-2.52
	c-0.54-2.17-1.08-4.34-1.61-6.52c-0.27-0.75-0.54-1.5-0.81-2.24c-0.26-1-0.52-1.99-0.79-2.99c-0.42-0.6-0.83-1.21-1.25-1.81
	c-0.4-1.88-0.8-3.77-1.2-5.65c-0.6-1.11-1.2-2.22-1.81-3.34c-0.4-1.64-0.79-3.27-1.19-4.91c-0.42-0.77-0.83-1.54-1.25-2.31
	c-0.56-1.74-1.11-3.47-1.67-5.21c-0.9-1.59-1.79-3.19-2.69-4.78c-0.58-1.91-1.17-3.82-1.75-5.73c-0.43-0.57-0.86-1.14-1.28-1.72
	c-0.05-0.43-0.1-0.87-0.15-1.3c-0.39-0.53-0.77-1.06-1.16-1.6c-0.61-0.97-1.23-1.94-1.84-2.91c-0.07-0.69-0.15-1.37-0.22-2.06
	c-0.4-0.58-0.79-1.17-1.18-1.75l-0.09,0.07c-0.53-1.75-1.06-3.49-1.58-5.24c-0.41-0.59-0.82-1.19-1.23-1.78
	c-0.06-0.41-0.13-0.83-0.19-1.24c-0.44-0.59-0.87-1.18-1.31-1.76c-0.88-2.15-1.75-4.3-2.63-6.45c-0.4-0.57-0.79-1.14-1.19-1.71
	c-1.61-3.36-3.06-6.8-4.86-10.05c-4.67-8.47-8.15-17.67-15.46-24.54c-11.63-10.93-24.33-20.28-39.17-26.34
	c-14.88-6.07-30.29-9.62-46.54-9.54c-11.25,0.05-22.3,1.06-33.41,2.95c-28.92,4.91-51.68,19.36-69.04,42.72
	c-4.37,5.88-8.66,11.81-13.01,17.7c-1.33,1.8-2.83,3.49-4.1,5.33c-11.76,17.04-16.8,36.51-19.63,56.59
	c-1.84,13.04-2.59,26.24-3.66,39.38c-0.19,2.36,0.47,4.8,0.73,7.2c0,1.01,0,2.03,0,3.04c-0.29,0.49-0.58,0.98-0.87,1.46
	c-0.37,0.89-1.13,1.81-1.04,2.65c0.33,3.13,0.93,6.23,1.43,9.34c0.08,3.96,0.05,7.93,0.26,11.89c0.51,9.57,0.91,19.15,1.76,28.7
	c0.95,10.77,2.26,21.5,3.56,32.23c1.05,8.62,2.21,17.24,3.54,25.82c1.43,9.2,2.84,18.43,4.79,27.53c1.6,7.48,3.44,15,6.17,22.12
	c2.14,5.6,5.8,10.61,8.78,15.89c0.45,2.41,0.8,4.83,1.36,7.21c3.58,15.32,10.24,28.91,21.86,39.89
	c10.41,9.84,22.82,14.46,36.91,15.27c10.62,0.61,21.04-0.97,31.42-2.88C406.03,801.62,405.92,806.46,405.8,811.29z M559.93,703.43
	c-0.44-0.17-0.88-0.35-1.32-0.52c-17.98,34.92-42.15,63.74-78.79,80.36c12.86,1.63,25.26,0.33,37.28-3.62
	c15.94-5.25,27.59-15.87,34.33-31.06c3.57-8.05,5.66-16.9,7.37-25.59C560.05,716.65,559.62,709.97,559.93,703.43z"/>
<path class="st1" d="M439.91,782.4c-0.11,4.25-0.22,8.51-0.33,12.76c-0.18,5.78-0.36,11.55-0.55,17.33
	c-11.15,1.6-22.23,0.92-33.24-1.21c0.12-4.83,0.23-9.66,0.35-14.49c0.13-0.82,0.25-1.63,0.37-2.45c0.07-2.73,0.13-5.45,0.2-8.18
	c0.17-0.19,0.29-0.4,0.37-0.65c8.39-1.06,16.79-2.12,25.18-3.18c1.74-0.24,3.49-0.48,5.23-0.72c0.51,0,1.02,0,1.53,0
	C439.32,781.88,439.62,782.14,439.91,782.4z"/>
<path class="st2" d="M439.04,812.49c0.18-5.78,0.36-11.55,0.55-17.33c0.28,2.14,0.73,4.27,0.81,6.42c0.13,3.61,0.02,7.22,0.01,10.83
	C439.95,812.44,439.49,812.46,439.04,812.49z"/>
<path class="st3" d="M543.77,475.1c0.07,0.69,0.15,1.37,0.22,2.06c0.26,1,0.51,2,0.77,3c0.03,0.49,0.07,0.98,0.1,1.47
	c1.77,5.26,3.67,10.48,5.27,15.79c2.09,6.96,3.94,13.99,5.89,20.98c0.53,4,1.07,8.01,1.6,12.01c0.44,0.8,0.88,1.61,1.31,2.41
	c-0.01,0.42-0.03,0.85-0.04,1.27c0.03,1.03,0.05,2.05,0.08,3.08c0.04,2,0.09,3.99,0.13,5.99c0.21,1.75,0.42,3.5,0.64,5.25
	c0.2,3.97,0.39,7.94,0.59,11.91c-1.62,0.06-3.26,0.01-4.86,0.19c-15.05,1.67-30.06,3.72-45.15,4.97
	c-10.42,0.86-20.93,0.88-31.4,0.85c-23.09-0.07-46.18-0.28-69.26-0.67c-16.94-0.29-33.87-0.93-50.81-1.47
	c-14.94-0.47-29.88-0.94-44.81-1.55c-9.07-0.37-18.13-1.02-27.19-1.55c-0.22-0.47-0.43-0.94-0.65-1.42c0-1.01,0-2.03,0-3.04
	c0.43-1.13,1.13-2.24,1.26-3.41c0.82-7.65,1.3-15.35,2.3-22.98c2.92-22.38,9.35-43.69,19.93-63.69
	c9.67-18.29,22.58-33.73,40.3-44.66c8.64-5.33,17.55-10.33,26.74-14.63c15.19-7.11,31.49-10.38,48.17-10.19
	c12.15,0.14,24.15,2.29,35.81,6.36c20.9,7.29,39.32,18.52,55.44,33.55c10.34,9.64,17.09,21.88,23.97,34.01
	c0.54,0.95,1.56,1.62,2.36,2.42c0,0,0.09-0.07,0.09-0.07C542.98,473.93,543.37,474.51,543.77,475.1z M493.62,550
	c0-1.5,0.01-2.71,0-3.93c-0.13-10.23-0.32-20.46-0.4-30.69c-0.22-27.84-0.43-55.67-0.5-83.51c-0.01-2.7-0.97-3.83-3.35-4.41
	c-4.23-1.05-8.4-2.38-12.66-3.27c-20.22-4.21-40.64-6.49-61.32-5.87c-19.44,0.59-38.49,3.49-56.86,10.05
	c-1.22,0.43-2.67,2.32-2.72,3.59c-0.78,17.94-1.34,35.88-1.94,53.83c-0.6,18.19-1.19,36.38-1.75,54.57
	c-0.09,3.06-0.01,6.12-0.01,9.22C399.58,545.47,446.38,541.03,493.62,550z"/>
<path class="st4" d="M558.91,534.09c0.01-0.42,0.03-0.85,0.04-1.27c-0.44-0.8-0.88-1.61-1.31-2.41c-0.53-4-1.07-8.01-1.6-12.01
	c0.32-1.2,0.64-2.4,0.96-3.61c0.85-0.15,1.05,0.32,1.16,0.81c0.95,4.49,1.83,9,2.83,13.48c1.31,5.91,3,11.75,3.99,17.7
	c1.29,7.79,2.01,15.67,3.11,23.49c0.22,1.55,0.82,3.15,1.65,4.47c2.34,3.73,1.41,7.67,0.81,11.49c-0.5,3.21-1.81,6.29-2.47,9.48
	c-0.74,3.55-1.01,7.19-1.72,10.75c-1.15,5.74-4.57,11.07-3.12,17.29c0.1,0.43-0.12,0.96-0.26,1.43c-1.78,6-3.72,11.97-5.34,18.02
	c-1.94,7.23-3.43,14.59-5.45,21.8c-2.47,8.83-5.21,17.59-8,26.33c-0.73,2.27-2.42,4.25-3.07,6.54c-1.07,3.82-1.64,7.79-2.46,11.68
	c-0.1,0.46-0.5,0.85-0.73,1.29c-2.49,4.81-5.1,9.57-7.44,14.46c-3.08,6.43-6.32,12.93-12.23,17.05c-4.67,3.26-10.15,5.37-15.34,7.84
	c-8.45,4.03-17.22,7.3-24.43,13.78c-5.24,4.72-11.42,8.4-17,12.4c-6.2-3.05-10.85,0.47-16.5,2.43c-2.62-1.91-4.81-0.93-5.96,2.82
	c-0.51,0-1.02,0-1.53,0c-1.9-0.92-3.79-1.72-5.23,0.72c-8.39,1.06-16.79,2.12-25.18,3.18c-0.61-0.1-1.22-0.21-1.82-0.31
	c-1.7,0.01-3.41,0.02-5.11,0.03c-1.34-0.35-2.67-0.7-4.01-1.05c-1.91-0.15-3.83-0.29-5.74-0.44c-0.59-0.35-1.18-0.71-1.77-1.06
	c-6.14-2.62-12.34-5.1-18.4-7.89c-8.58-3.94-17.05-8.1-25.57-12.17c-1.15-1.06-2.14-2.38-3.46-3.15
	c-8.64-5.03-16.11-11.47-22.94-18.71c-1.15-1.22-2.44-2.31-3.67-3.46c-2.98-5.27-6.64-10.29-8.78-15.89
	c-2.73-7.12-4.57-14.64-6.17-22.12c-1.95-9.1-3.36-18.33-4.79-27.53c-1.33-8.58-2.49-17.2-3.54-25.82
	c-1.31-10.73-2.61-21.47-3.56-32.23c-0.84-9.54-1.25-19.13-1.76-28.7c-0.21-3.96-0.18-7.93-0.27-11.89
	c1.07,1.02,2.14,2.04,3.22,3.06c0.02,0.24,0.04,0.48,0.08,0.72c0.98,6.5,1.91,13.01,2.94,19.51c3.69,23.27,9.8,45.95,18.46,67.82
	c7.48,18.89,17.35,36.5,30.5,52.25c12.44,14.9,26.57,27.56,43.74,36.7c8.38,4.46,17.05,8.05,26.62,9.01
	c2.98,0.23,5.96,0.47,8.94,0.7c2.26,0.01,4.52,0.01,6.78,0.02c3-0.26,6.01-0.51,9.01-0.77c10.83-1.16,20.62-5.34,29.87-10.77
	c13.6-7.98,25.58-17.92,36.05-29.83c10.5-11.95,19.82-24.69,26.37-39.14c6.08-13.41,11.03-27.32,16.49-41.01
	c0.25-0.49,0.5-0.98,0.75-1.47c0.05-0.51,0.11-1.02,0.16-1.54c0.44-1.24,0.89-2.48,1.33-3.72c0.24-1.01,0.47-2.01,0.71-3.02
	c0.26-0.75,0.52-1.49,0.78-2.24c0.26-1.26,0.52-2.51,0.78-3.77c0.25-0.74,0.49-1.48,0.74-2.22c0.25-1.26,0.49-2.52,0.74-3.78
	c0.24-0.75,0.48-1.5,0.72-2.25c0.25-1.25,0.49-2.5,0.74-3.75c2.11-1.34,2.68-3.08,1.39-5.31c-0.02-0.23,0-0.45,0.06-0.67
	c2.21-1.45,2.01-3.28,0.83-5.26c0.04-0.76,0.08-1.51,0.12-2.27c2.09-1,2.8-2.42,1.35-4.49c0.07-1.5,0.13-3.01,0.2-4.51
	c0.44-1.99,0.88-3.99,1.31-5.98c0.05-1.25,0.09-2.51,0.14-3.76c2.07-2.2,2.64-4.68,1.35-7.49c0.01-0.75,0.02-1.5,0.03-2.25
	c2.61-2.11,1.48-4.93,1.4-7.54c-0.03-1.26-0.07-2.53-0.1-3.79c-0.2-3.97-0.39-7.94-0.59-11.91c1-1.9,1.73-3.76-0.64-5.25
	c-0.04-2-0.09-3.99-0.13-5.99C558.96,536.14,558.93,535.11,558.91,534.09z"/>
<path class="st5" d="M560.34,560.32c0.03,1.26,0.07,2.53,0.11,3.79c-0.47,2.51-0.93,5.03-1.4,7.54c-0.01,0.75-0.02,1.5-0.03,2.25
	c-0.24,0.24-0.47,0.48-0.71,0.72c-3.97,0.28-7.93,0.62-11.91,0.84c-18.01,0.99-36.02,2.04-54.03,2.88
	c-7.23,0.33-14.49,0.16-21.73,0.22c-3.19-0.05-6.39-0.19-9.57-0.07c-0.88,0.03-1.73,0.87-2.59,1.34c-4.23,0.02-8.47,0.05-12.7,0.07
	c-3.99-0.25-7.98-0.64-11.98-0.69c-2.5-0.03-5.01,0.46-7.52,0.72c-1.98,0.02-3.96,0.04-5.94,0.07c-3.56,0.01-7.12,0.03-10.68,0.04
	c-17.21-0.03-34.42-0.05-51.62-0.08c-4.25-0.02-8.5-0.04-12.75-0.06c-3.48-0.04-6.96-0.08-10.44-0.12
	c-2.56-0.41-5.12-0.82-7.68-1.22c-6.19-0.09-12.38-0.17-18.57-0.26c-1.27-0.22-2.54-0.44-3.81-0.66c-2.5-0.23-5-0.45-7.5-0.68
	c-1-0.03-2-0.07-3-0.1c-1.23-0.04-2.45-0.08-3.68-0.12c-0.55-0.18-1.1-0.36-1.64-0.55c-1.07-1.02-2.15-2.04-3.22-3.07
	c-0.5-3.11-1.1-6.21-1.43-9.34c-0.09-0.84,0.67-1.77,1.04-2.65c0.51-0.02,1.01-0.03,1.52-0.05c9.06,0.52,18.12,1.17,27.19,1.55
	c14.93,0.61,29.87,1.08,44.81,1.55c16.93,0.54,33.87,1.18,50.81,1.47c23.08,0.39,46.17,0.6,69.26,0.67
	c10.47,0.03,20.98,0.02,31.4-0.85c15.08-1.25,30.1-3.3,45.15-4.97C557.08,560.32,558.72,560.37,560.34,560.32z"/>
<path class="st6" d="M542.5,473.41c-0.8-0.8-1.82-1.47-2.36-2.42c-6.87-12.13-13.62-24.38-23.97-34.01
	c-16.13-15.02-34.54-26.26-55.44-33.55c-11.66-4.07-23.66-6.22-35.81-6.36c-16.68-0.2-32.99,3.07-48.17,10.19
	c-9.19,4.3-18.1,9.3-26.74,14.63c-17.72,10.93-30.63,26.36-40.3,44.66c-10.58,20.01-17.02,41.31-19.93,63.69
	c-0.99,7.63-1.48,15.33-2.3,22.98c-0.13,1.17-0.82,2.27-1.26,3.41c-0.26-2.4-0.92-4.83-0.73-7.2c1.06-13.14,1.82-26.34,3.66-39.38
	c2.83-20.07,7.87-39.54,19.63-56.59c1.27-1.84,2.77-3.53,4.1-5.33c4.35-5.89,8.64-11.82,13.01-17.7
	c17.36-23.36,40.12-37.81,69.04-42.72c11.11-1.89,22.16-2.9,33.41-2.95c16.24-0.08,31.65,3.47,46.54,9.54
	c14.84,6.05,27.54,15.41,39.17,26.34c7.31,6.87,10.79,16.06,15.46,24.54c1.79,3.26,3.25,6.7,4.86,10.06
	c0.4,0.57,0.79,1.14,1.19,1.71c0.88,2.15,1.75,4.3,2.63,6.45c0.44,0.59,0.87,1.17,1.31,1.76c0.06,0.41,0.13,0.83,0.19,1.24
	c0.41,0.59,0.82,1.19,1.23,1.78C541.44,469.92,541.97,471.67,542.5,473.41z"/>
<path class="st7" d="M559.93,703.43c-0.32,6.53,0.12,13.22-1.13,19.56c-1.72,8.69-3.8,17.54-7.37,25.59
	c-6.73,15.19-18.38,25.8-34.33,31.06c-12.01,3.96-24.42,5.25-37.28,3.62c36.64-16.61,60.81-45.44,78.79-80.36
	C559.05,703.08,559.49,703.26,559.93,703.43z"/>
<path class="st7" d="M314.6,737.3c1.23,1.15,2.52,2.24,3.67,3.46c6.83,7.24,14.29,13.68,22.94,18.71c1.32,0.77,2.31,2.08,3.46,3.15
	c0.19,0.74,0.14,1.77,0.62,2.16c12.35,9.97,25.67,18.39,40.59,23.9c6.67,2.46,13.75,3.81,20.65,5.66c-0.12,0.82-0.25,1.63-0.37,2.45
	c-10.39,1.91-20.8,3.49-31.43,2.88c-14.09-0.81-26.5-5.43-36.91-15.27c-11.61-10.98-18.28-24.57-21.86-39.89
	C315.4,742.13,315.05,739.71,314.6,737.3z"/>
<path class="st6" d="M439.03,781.62c1.15-3.74,3.34-4.73,5.96-2.82c5.65-1.96,10.31-5.48,16.5-2.43c5.58-4.01,11.75-7.69,17-12.4
	c7.2-6.48,15.97-9.74,24.43-13.78c5.19-2.48,10.67-4.59,15.34-7.84c5.91-4.13,9.15-10.62,12.23-17.05
	c2.34-4.89,4.95-9.65,7.44-14.46c0.23-0.44,0.63-0.83,0.73-1.29c0.82-3.9,1.39-7.86,2.46-11.68c0.64-2.29,2.34-4.26,3.07-6.54
	c2.79-8.74,5.53-17.5,8-26.33c2.02-7.21,3.51-14.56,5.45-21.8c1.62-6.05,3.55-12.01,5.34-18.02c0.14-0.47,0.36-1,0.26-1.43
	c-1.45-6.23,1.97-11.55,3.12-17.29c0.71-3.55,0.99-7.2,1.72-10.75c0.66-3.2,1.97-6.27,2.47-9.48c0.6-3.82,1.53-7.76-0.81-11.49
	c-0.83-1.32-1.44-2.93-1.65-4.47c-1.1-7.82-1.81-15.71-3.11-23.49c-0.99-5.96-2.68-11.8-3.99-17.7c-0.99-4.48-1.88-8.99-2.83-13.48
	c-0.1-0.49-0.31-0.97-1.16-0.81c-0.32,1.2-0.64,2.4-0.96,3.61c-1.95-7-3.8-14.03-5.89-20.98c-1.6-5.31-3.5-10.53-5.27-15.79
	c0.71,0.01,1.42,0.03,2.12,0.04c0.05,0.43,0.1,0.87,0.15,1.3c0.43,0.57,0.86,1.14,1.28,1.72c0.58,1.91,1.17,3.82,1.75,5.73
	c0.9,1.59,1.79,3.19,2.69,4.78c0.56,1.74,1.11,3.47,1.67,5.21c0.42,0.77,0.83,1.54,1.25,2.31c0.4,1.64,0.79,3.27,1.19,4.91
	c0.6,1.11,1.2,2.22,1.81,3.33c0.4,1.88,0.8,3.77,1.2,5.65c0.42,0.6,0.83,1.21,1.25,1.81c0.26,1,0.52,1.99,0.79,2.99
	c0.27,0.75,0.54,1.5,0.81,2.24c0.54,2.17,1.08,4.34,1.61,6.52c0.41,0.84,0.82,1.68,1.23,2.51c0.26,1.25,0.53,2.5,0.79,3.74
	c0.22,0.51,0.43,1.01,0.65,1.52c0.29,1.49,0.59,2.98,0.88,4.47c0.2,0.51,0.4,1.02,0.61,1.53c0.06,0.49,0.12,0.97,0.18,1.46
	c0.14,0.52,0.28,1.04,0.41,1.56c0.07,0.49,0.14,0.99,0.21,1.48c0.24,0.75,0.48,1.5,0.72,2.25c0.05,0.49,0.09,0.98,0.14,1.47
	c0.43,2.26,0.86,4.52,1.29,6.79c0.08,1.23,0.17,2.47,0.25,3.7c0.03,0.51,0.07,1.02,0.1,1.53c0.01,0.67,0.02,1.34,0.03,2
	c0.39,2.34,0.78,4.67,1.17,7c0,5.23,0,10.45,0,15.68c-0.22,1.75-0.45,3.5-0.67,5.25c-0.08,0.74-0.16,1.48-0.23,2.22
	c-0.14,0.52-0.27,1.04-0.41,1.56c-0.07,0.74-0.15,1.47-0.22,2.21c-0.42,1.77-0.84,3.53-1.26,5.3c-0.07,0.73-0.13,1.47-0.2,2.2
	c-0.22,0.75-0.44,1.51-0.66,2.26c-0.76,4-1.53,8-2.29,12c-0.41,0.84-0.81,1.67-1.22,2.51c-0.02,0.67-0.04,1.33-0.06,2
	c-0.21,0.6-0.43,1.21-0.64,1.81c-0.33,2.15-0.67,4.3-1,6.45c-0.25,0.75-0.5,1.5-0.76,2.25c-0.27,1.49-0.55,2.99-0.82,4.48
	c-0.24,0.75-0.49,1.5-0.74,2.25c-0.08,0.74-0.16,1.48-0.24,2.22c-0.39,1.02-0.77,2.04-1.16,3.06c-0.1,0.98-0.2,1.96-0.3,2.94
	c-0.4,1.02-0.8,2.04-1.2,3.06c-0.26,1.25-0.53,2.49-0.79,3.74c-0.25,0.75-0.5,1.5-0.75,2.25c-0.08,0.74-0.15,1.47-0.23,2.21
	c-0.36,0.58-0.72,1.17-1.08,1.75c-0.3,1.43-0.6,2.87-0.9,4.3c-0.41,0.85-0.82,1.71-1.24,2.56c-0.66,2.88-1.31,5.76-1.96,8.64
	c-0.2,0.51-0.4,1.02-0.59,1.53c-0.06,0.49-0.11,0.98-0.16,1.47c-0.38,0.58-0.76,1.17-1.14,1.75c-0.11,0.92-0.21,1.84-0.32,2.76
	c-0.4,0.58-0.79,1.16-1.19,1.73c-0.07,0.68-0.14,1.36-0.21,2.04c-0.43,0.82-0.85,1.65-1.28,2.47c-0.11,0.92-0.22,1.84-0.33,2.76
	c-0.38,0.59-0.77,1.17-1.16,1.76c-0.09,0.67-0.19,1.33-0.28,2c-0.68,1.3-1.37,2.59-2.05,3.89c-4.33,9.66-8.19,19.57-13.13,28.91
	c-4.34,8.21-11.11,14.27-20.12,17.58c-4.51,1.66-8.78,3.98-13.16,6c-0.56,0.41-1.13,0.81-1.69,1.22
	c-9.1,2.93-16.24,8.59-22.45,15.71c-1.29,1.48-3.48,2.17-5.26,3.22c-1.27,0.41-2.54,0.82-3.81,1.23c-1.23,0.09-2.46,0.18-3.69,0.28
	c-1.27,0.42-2.54,0.83-3.8,1.25c-1.23,0.08-2.47,0.15-3.7,0.23c-1.51,0.29-3.01,0.58-4.52,0.87c-2.69,0.47-5.39,0.94-8.08,1.42
	C439.62,782.14,439.32,781.88,439.03,781.62z"/>
<path class="st8" d="M573.08,573.18c-0.39-2.33-0.78-4.67-1.17-7C572.3,568.51,572.69,570.85,573.08,573.18z"/>
<path class="st8" d="M571.53,558.94c-0.43-2.26-0.86-4.52-1.29-6.79C570.67,554.42,571.1,556.68,571.53,558.94z"/>
<path class="st8" d="M572.41,594.12c0.23-1.75,0.45-3.5,0.67-5.25C572.86,590.61,572.64,592.36,572.41,594.12z"/>
<path class="st8" d="M570.29,605.4c0.42-1.77,0.84-3.53,1.26-5.3C571.13,601.87,570.71,603.64,570.29,605.4z"/>
<path class="st9" d="M552.86,495.19c-0.9-1.59-1.79-3.18-2.69-4.78C551.07,492,551.97,493.59,552.86,495.19z"/>
<path class="st6" d="M544.76,480.15c-0.26-1-0.51-2-0.77-3c0.61,0.97,1.23,1.94,1.84,2.91
	C545.47,480.09,545.12,480.12,544.76,480.15z"/>
<path class="st10" d="M447.99,780.99c1.51-0.29,3.01-0.58,4.52-0.87C451,780.41,449.5,780.7,447.99,780.99z"/>
<path class="st10" d="M456.21,779.89c1.27-0.42,2.54-0.83,3.8-1.25C458.75,779.06,457.48,779.48,456.21,779.89z"/>
<path class="st10" d="M463.71,778.37c1.27-0.41,2.54-0.82,3.81-1.23C466.25,777.55,464.98,777.96,463.71,778.37z"/>
<path class="st11" d="M543.33,704.5c0.69-1.3,1.37-2.59,2.05-3.89C544.7,701.91,544.01,703.2,543.33,704.5z"/>
<path class="st9" d="M558.77,510.94c-0.6-1.11-1.21-2.22-1.81-3.33C557.57,508.72,558.17,509.83,558.77,510.94z"/>
<path class="st11" d="M559,654.89c0.4-1.02,0.8-2.04,1.2-3.06C559.8,652.86,559.4,653.88,559,654.89z"/>
<path class="st11" d="M560.51,648.9c0.39-1.02,0.78-2.04,1.16-3.06C561.28,646.86,560.9,647.88,560.51,648.9z"/>
<path class="st9" d="M555.78,502.7c-0.42-0.77-0.83-1.54-1.25-2.31C554.94,501.16,555.36,501.93,555.78,502.7z"/>
<path class="st11" d="M563.47,636.88c0.25-0.75,0.5-1.5,0.76-2.25C563.97,635.38,563.72,636.13,563.47,636.88z"/>
<path class="st11" d="M561.91,643.62c0.25-0.75,0.49-1.5,0.74-2.25C562.4,642.12,562.16,642.87,561.91,643.62z"/>
<path class="st11" d="M554.01,671.7c0.41-0.85,0.82-1.71,1.24-2.56C554.83,670,554.42,670.85,554.01,671.7z"/>
<path class="st11" d="M547.15,694.09c0.43-0.82,0.85-1.64,1.28-2.47C548,692.45,547.58,693.27,547.15,694.09z"/>
<path class="st9" d="M544.76,480.15c0.35-0.03,0.71-0.06,1.07-0.09c0.39,0.53,0.77,1.06,1.16,1.6c-0.71-0.01-1.42-0.03-2.12-0.04
	C544.83,481.13,544.8,480.64,544.76,480.15z"/>
<path class="st8" d="M565.66,532.67c-0.41-0.84-0.82-1.67-1.23-2.51C564.84,531,565.25,531.83,565.66,532.67z"/>
<path class="st8" d="M570.11,550.68c-0.24-0.75-0.48-1.5-0.72-2.25C569.63,549.19,569.87,549.94,570.11,550.68z"/>
<path class="st11" d="M557.46,660.88c0.25-0.75,0.5-1.5,0.75-2.25C557.96,659.38,557.71,660.13,557.46,660.88z"/>
<path class="st8" d="M569.43,609.87c0.22-0.75,0.44-1.51,0.66-2.26C569.87,608.36,569.65,609.12,569.43,609.87z"/>
<path class="st8" d="M565.92,624.38c0.41-0.84,0.81-1.67,1.22-2.51C566.73,622.7,566.33,623.54,565.92,624.38z"/>
<path class="st9" d="M562.82,523.64c-0.27-0.75-0.54-1.5-0.81-2.24C562.28,522.15,562.55,522.89,562.82,523.64z"/>
<path class="st9" d="M540.91,468.17c-0.41-0.59-0.82-1.19-1.23-1.78C540.09,466.99,540.5,467.58,540.91,468.17z"/>
<path class="st9" d="M539.5,465.15c-0.44-0.59-0.88-1.17-1.31-1.76C538.62,463.98,539.06,464.57,539.5,465.15z"/>
<path class="st11" d="M556.14,664.84c0.36-0.58,0.72-1.17,1.08-1.75C556.86,663.67,556.5,664.26,556.14,664.84z"/>
<path class="st11" d="M551.45,681.88c0.2-0.51,0.4-1.02,0.59-1.53C551.85,680.86,551.65,681.37,551.45,681.88z"/>
<path class="st11" d="M550.15,685.1c0.38-0.58,0.76-1.17,1.14-1.75C550.91,683.93,550.53,684.51,550.15,685.1z"/>
<path class="st11" d="M548.64,689.59c0.4-0.58,0.79-1.16,1.19-1.73C549.43,688.43,549.04,689.01,548.64,689.59z"/>
<path class="st11" d="M545.66,698.61c0.39-0.59,0.77-1.17,1.16-1.76C546.43,697.44,546.05,698.03,545.66,698.61z"/>
<path class="st9" d="M535.56,456.94c-0.4-0.57-0.79-1.14-1.19-1.71C534.76,455.8,535.16,456.37,535.56,456.94z"/>
<path class="st8" d="M571.88,564.18c-0.03-0.51-0.07-1.02-0.1-1.53C571.82,563.15,571.85,563.67,571.88,564.18z"/>
<path class="st6" d="M286.87,561.08c-0.51,0.02-1.01,0.03-1.52,0.05c0.29-0.49,0.58-0.98,0.87-1.46
	C286.43,560.14,286.65,560.61,286.87,561.08z"/>
<path class="st9" d="M548.42,484.67c-0.43-0.57-0.86-1.14-1.28-1.72C547.57,483.53,547.99,484.1,548.42,484.67z"/>
<path class="st8" d="M569.18,546.96c-0.14-0.52-0.28-1.04-0.41-1.56C568.91,545.92,569.05,546.44,569.18,546.96z"/>
<path class="st8" d="M565.23,628.19c0.21-0.6,0.43-1.21,0.64-1.81C565.65,626.98,565.44,627.58,565.23,628.19z"/>
<path class="st8" d="M571.77,597.9c0.14-0.52,0.28-1.04,0.41-1.56C572.04,596.86,571.91,597.38,571.77,597.9z"/>
<path class="st9" d="M561.23,518.41c-0.42-0.6-0.83-1.21-1.25-1.81C560.39,517.2,560.81,517.81,561.23,518.41z"/>
<path class="st8" d="M568.59,543.94c-0.2-0.51-0.4-1.02-0.61-1.53C568.19,542.92,568.39,543.43,568.59,543.94z"/>
<path class="st8" d="M567.1,537.94c-0.22-0.51-0.43-1.01-0.65-1.52C566.67,536.92,566.89,537.43,567.1,537.94z"/>
<path class="st9" d="M543.77,475.1c-0.4-0.58-0.79-1.17-1.19-1.75C542.98,473.93,543.37,474.51,543.77,475.1z"/>
<path class="st12" d="M495.22,758.21c0.56-0.41,1.13-0.81,1.69-1.22C496.35,757.4,495.79,757.8,495.22,758.21z"/>
<path class="st13" d="M406.52,794.34c-6.9-1.85-13.98-3.19-20.65-5.66c-14.92-5.51-28.24-13.93-40.59-23.9
	c-0.48-0.38-0.42-1.42-0.62-2.16c8.52,4.07,17,8.23,25.57,12.17c6.06,2.78,12.26,5.27,18.4,7.88c0.59,0.35,1.18,0.71,1.77,1.07
	c1.91,0.15,3.83,0.29,5.74,0.44c1.34,0.35,2.67,0.7,4.01,1.06c1.7-0.01,3.41-0.02,5.11-0.03c0.49,0.32,0.97,0.64,1.46,0.96
	C406.65,788.89,406.59,791.61,406.52,794.34z"/>
<path class="st6" d="M432.27,782.34c1.44-2.44,3.32-1.65,5.23-0.72C435.76,781.86,434.01,782.1,432.27,782.34z"/>
<path class="st14" d="M406.72,786.16c-0.49-0.32-0.97-0.64-1.46-0.96c0.61,0.1,1.22,0.21,1.82,0.31
	C407.01,785.76,406.89,785.97,406.72,786.16z"/>
<path class="st15" d="M493.62,550c-47.24-8.97-94.04-4.53-141.5-0.42c0-3.1-0.08-6.16,0.01-9.22c0.56-18.19,1.15-36.38,1.75-54.57
	c0.59-17.95,1.16-35.89,1.94-53.83c0.05-1.27,1.5-3.15,2.72-3.59c18.37-6.56,37.42-9.46,56.86-10.05
	c20.68-0.63,41.1,1.65,61.32,5.87c4.26,0.89,8.43,2.22,12.66,3.27c2.37,0.59,3.34,1.72,3.35,4.41c0.06,27.84,0.28,55.68,0.5,83.51
	c0.08,10.23,0.27,20.46,0.4,30.69C493.63,547.29,493.62,548.5,493.62,550z M479.08,434.17c-3.63-0.55-7.31-1.04-10.97-1.67
	c-20.48-3.52-41.11-5.28-61.88-4.73c-10.22,0.27-20.41,1.33-30.16,4.95c-5.31,1.97-5.84,2.45-5.84,8.01
	c-0.01,8.87,0.03,17.75-0.05,26.62c-0.19,20.23-0.42,40.47-0.7,60.7c-0.03,2.43,1,2.81,3.2,2.7c19.06-0.91,38.13-2.16,57.2-2.38
	c16.29-0.19,32.6,0.83,49.19,1.33C479.08,498.5,479.08,466.59,479.08,434.17z"/>
<path class="st6" d="M559.11,543.16c2.37,1.49,1.63,3.35,0.64,5.25C559.54,546.66,559.33,544.91,559.11,543.16z"/>
<path class="st6" d="M558.91,534.09c0.03,1.03,0.05,2.05,0.08,3.08C558.96,536.14,558.93,535.11,558.91,534.09z"/>
<path class="st6" d="M557.63,530.4c0.44,0.8,0.88,1.6,1.31,2.41C558.51,532.01,558.07,531.21,557.63,530.4z"/>
<path class="st16" d="M308.57,578.29c6.19,0.09,12.38,0.17,18.58,0.26c2.56,0.41,5.12,0.82,7.68,1.23
	c3.48,0.04,6.96,0.08,10.44,0.12c4.25,0.02,8.5,0.04,12.75,0.06c17.21,0.03,34.42,0.05,51.62,0.08c0.04,3.24,0.1,6.49,0.12,9.73
	c0.25,37.79,0.46,75.58,0.77,113.37c0.16,19.69,0.51,39.38,0.77,59.07c-9.57-0.95-18.24-4.55-26.62-9.01
	c-17.17-9.14-31.3-21.8-43.74-36.7c-13.15-15.75-23.02-33.36-30.5-52.25c-8.66-21.87-14.77-44.54-18.46-67.82
	c-1.03-6.5-1.97-13.01-2.94-19.51c0.52-0.06,1.04-0.12,1.56-0.17c1.23,0.04,2.45,0.08,3.68,0.12c1,0.03,2,0.07,3,0.1
	c2.5,0.23,5,0.45,7.5,0.68C306.04,577.85,307.31,578.07,308.57,578.29z"/>
<path class="st16" d="M445.77,579.89c4.23-0.02,8.47-0.05,12.7-0.07c3.05,0.02,6.1,0.15,9.14,0c1.03-0.05,2.02-0.83,3.03-1.27
	c7.25-0.06,14.5,0.12,21.73-0.22c18.02-0.83,36.02-1.88,54.03-2.88c3.97-0.22,7.94-0.55,11.9-0.84c-0.22,2.26-0.43,4.51-0.64,6.77
	c-0.05,1.25-0.09,2.51-0.14,3.76c-0.44,1.99-0.88,3.99-1.31,5.98c-0.07,1.5-0.13,3.01-0.2,4.51c-0.45,1.5-0.9,3-1.35,4.49
	c-0.04,0.76-0.08,1.51-0.12,2.27c-0.28,1.75-0.55,3.51-0.83,5.26c-0.06,0.22-0.08,0.44-0.06,0.67c-0.46,1.77-0.92,3.54-1.39,5.31
	c-0.25,1.25-0.49,2.5-0.74,3.75c-0.24,0.75-0.48,1.5-0.72,2.25c-0.25,1.26-0.49,2.52-0.74,3.78c-0.25,0.74-0.49,1.48-0.74,2.22
	c-0.26,1.26-0.52,2.51-0.78,3.77c-0.26,0.75-0.52,1.49-0.78,2.24c-0.24,1.01-0.47,2.01-0.71,3.02c-0.44,1.24-0.89,2.48-1.33,3.72
	c-0.05,0.51-0.11,1.02-0.16,1.54c-0.25,0.49-0.5,0.98-0.75,1.47c-5.45,13.69-10.41,27.6-16.49,41.01
	c-6.55,14.44-15.87,27.19-26.37,39.14c-10.47,11.91-22.45,21.84-36.05,29.83c-9.24,5.43-19.04,9.61-29.87,10.77
	c0.49-11.69,1.16-23.37,1.42-35.07c0.41-19.09,0.52-38.18,0.82-57.27c0.18-11.35,0.51-22.69,0.71-34.03
	c0.28-15.84,0.5-31.68,0.78-47.52c0.04-2.35-0.28-4.93,0.63-6.93c0.43-0.96,3.33-0.81,5.1-1.17
	C445.6,580.12,445.68,579.98,445.77,579.89z"/>
<path class="st17" d="M445.77,579.89c-0.09,0.09-0.16,0.24-0.27,0.26c-1.78,0.37-4.67,0.21-5.1,1.17c-0.9,2-0.58,4.58-0.63,6.93
	c-0.28,15.84-0.5,31.68-0.78,47.52c-0.2,11.35-0.53,22.69-0.71,34.03c-0.3,19.09-0.41,38.18-0.82,57.27
	c-0.25,11.69-0.93,23.38-1.42,35.07c-3,0.26-6.01,0.51-9.01,0.77c0.24-26.96,0.6-53.91,0.7-80.87c0.13-31.48,0.04-62.97,0.05-94.45
	c0-1.25,0.26-2.54,0.02-3.73c-0.28-1.36-1-2.63-1.52-3.94c2.51-0.26,5.02-0.75,7.52-0.72C437.78,579.24,441.77,579.64,445.77,579.89
	z"/>
<path class="st17" d="M411.3,762.19c-0.26-19.69-0.61-39.38-0.77-59.07c-0.31-37.79-0.51-75.58-0.77-113.37
	c-0.02-3.24-0.08-6.49-0.12-9.73c3.56-0.01,7.12-0.03,10.68-0.04c-0.02,1.75-0.07,3.5-0.07,5.24
	c-0.01,59.22-0.01,118.44-0.01,177.66C417.26,762.65,414.28,762.42,411.3,762.19z"/>
<path class="st18" d="M420.24,762.89c0-59.22,0.01-118.44,0.01-177.66c0-1.75,0.04-3.5,0.07-5.24c1.98-0.02,3.96-0.04,5.94-0.06
	c0.53,1.31,1.24,2.58,1.52,3.94c0.25,1.19-0.02,2.48-0.02,3.73c-0.01,31.48,0.08,62.97-0.05,94.45c-0.11,26.96-0.46,53.91-0.7,80.87
	C424.77,762.9,422.5,762.89,420.24,762.89z"/>
<path class="st6" d="M559.04,571.65c0.47-2.51,0.94-5.03,1.4-7.54C560.52,566.72,561.66,569.53,559.04,571.65z"/>
<path class="st6" d="M557.66,581.39c0.21-2.26,0.43-4.51,0.64-6.77c0.24-0.24,0.47-0.48,0.71-0.72
	C560.3,576.71,559.73,579.18,557.66,581.39z"/>
<path class="st6" d="M556.21,591.13c0.44-1.99,0.88-3.99,1.31-5.98C557.08,587.14,556.65,589.14,556.21,591.13z"/>
<path class="st6" d="M552.26,613.65c0.46-1.77,0.93-3.54,1.39-5.31C554.94,610.56,554.37,612.31,552.26,613.65z"/>
<path class="st6" d="M553.71,607.67c0.28-1.75,0.55-3.51,0.83-5.26C555.72,604.39,555.92,606.22,553.71,607.67z"/>
<path class="st6" d="M554.66,600.14c0.45-1.5,0.9-3,1.35-4.49C557.47,597.72,556.75,599.13,554.66,600.14z"/>
<path class="st14" d="M400.15,785.24c-1.34-0.35-2.67-0.7-4.01-1.06C397.48,784.53,398.81,784.89,400.15,785.24z"/>
<path class="st6" d="M545.72,638.39c0.44-1.24,0.88-2.48,1.33-3.72C546.61,635.91,546.17,637.15,545.72,638.39z"/>
<path class="st6" d="M550.8,619.65c0.24-0.75,0.48-1.5,0.72-2.25C551.28,618.15,551.04,618.9,550.8,619.65z"/>
<path class="st6" d="M549.32,625.64c0.25-0.74,0.49-1.48,0.74-2.22C549.82,624.16,549.57,624.9,549.32,625.64z"/>
<path class="st6" d="M547.76,631.65c0.26-0.75,0.52-1.49,0.78-2.24C548.28,630.16,548.02,630.9,547.76,631.65z"/>
<path class="st17" d="M290.6,576.73c-0.52,0.06-1.04,0.12-1.56,0.17c-0.04-0.24-0.07-0.48-0.08-0.72
	C289.5,576.37,290.05,576.55,290.6,576.73z"/>
<path class="st6" d="M544.81,641.4c0.25-0.49,0.5-0.98,0.75-1.47C545.31,640.41,545.06,640.9,544.81,641.4z"/>
<path class="st14" d="M390.4,783.75c-0.59-0.36-1.18-0.71-1.77-1.07C389.22,783.04,389.81,783.39,390.4,783.75z"/>
<path class="st17" d="M358.02,579.95c-4.25-0.02-8.5-0.04-12.75-0.06C349.52,579.91,353.77,579.93,358.02,579.95z"/>
<path class="st17" d="M470.63,578.54c-1.01,0.44-2,1.22-3.03,1.27c-3.04,0.15-6.09,0.02-9.14,0c0.86-0.47,1.71-1.31,2.59-1.34
	C464.25,578.35,467.44,578.5,470.63,578.54z"/>
<path class="st17" d="M334.83,579.77c-2.56-0.41-5.12-0.82-7.68-1.23C329.71,578.95,332.27,579.36,334.83,579.77z"/>
<path class="st17" d="M308.57,578.29c-1.27-0.22-2.54-0.44-3.81-0.66C306.04,577.85,307.31,578.07,308.57,578.29z"/>
<path class="st17" d="M297.27,576.95c-1-0.03-2-0.07-3-0.1C295.27,576.88,296.27,576.92,297.27,576.95z"/>
<path class="st3" d="M479.08,434.17c0,32.42,0,64.33,0,95.53c-16.59-0.49-32.9-1.52-49.19-1.33c-19.08,0.22-38.14,1.47-57.2,2.38
	c-2.21,0.11-3.24-0.27-3.2-2.7c0.27-20.23,0.51-40.47,0.7-60.7c0.08-8.87,0.04-17.75,0.05-26.62c0-5.55,0.54-6.04,5.84-8.01
	c9.75-3.61,19.93-4.68,30.16-4.95c20.77-0.55,41.4,1.21,61.88,4.73C471.77,433.13,475.45,433.62,479.08,434.17z"/>
</svg>
